HIERARCHY
ROOT Hips
{
	OFFSET 0.000000 83.214638 0.000000
	CHANNELS 6 Xposition Yposition Zposition Xrotation Yrotation Zrotation
	JOINT Pelvis
	{
		OFFSET 0.000000 0.000000 0.000000
		CHANNELS 3 Xrotation Yrotation Zrotation
		JOINT LeftUpLeg
		{
			OFFSET 8.479700 -4.795502 -0.379100
			CHANNELS 3 Xrotation Yrotation Zrotation
			JOINT LeftLeg
			{
				OFFSET 0.024144 -32.555107 0.112900
				CHANNELS 3 Xrotation Yrotation Zrotation
				JOINT LeftFoot
				{
					OFFSET -0.024144 -32.638630 -3.012600
					CHANNELS 3 Xrotation Yrotation Zrotation
					JOINT LeftToeBase
					{
						OFFSET 0.970200 -13.225400 11.864200
						CHANNELS 3 Xrotation Yrotation Zrotation
						End Site
						{
							OFFSET 0.000000 12.319262 0.000000
						}
					}
					JOINT LFootTongue
					{
						OFFSET 1.142400 -1.059800 6.665200
						CHANNELS 3 Xrotation Yrotation Zrotation
						End Site
						{
							OFFSET 0.000000 12.319262 0.000000
						}
					}
				}
				JOINT LeftPantLeg
				{
					OFFSET 0.918482 -16.533964 -2.284700
					CHANNELS 3 Xrotation Yrotation Zrotation
					End Site
					{
						OFFSET 0.350399 24.744368 0.000000
					}
				}
			}
		}
		JOINT RightUpLeg
		{
			OFFSET -8.479700 -4.795502 -0.379100
			CHANNELS 3 Xrotation Yrotation Zrotation
			JOINT RightLeg
			{
				OFFSET -0.023144 -32.555092 0.112900
				CHANNELS 3 Xrotation Yrotation Zrotation
				JOINT RightFoot
				{
					OFFSET 0.023144 -32.638641 -3.012700
					CHANNELS 3 Xrotation Yrotation Zrotation
					JOINT RightToeBase
					{
						OFFSET -0.970200 -13.225400 11.864200
						CHANNELS 3 Xrotation Yrotation Zrotation
						End Site
						{
							OFFSET 0.000000 12.319244 0.000000
						}
					}
					JOINT RFootTongue
					{
						OFFSET -1.142200 -1.059800 6.665200
						CHANNELS 3 Xrotation Yrotation Zrotation
						End Site
						{
							OFFSET 0.000000 12.319243 0.000000
						}
					}
				}
				JOINT RightPantLeg
				{
					OFFSET -0.919482 -16.533978 -2.284800
					CHANNELS 3 Xrotation Yrotation Zrotation
					End Site
					{
						OFFSET -0.350400 24.744419 0.000000
					}
				}
			}
		}
	}
	JOINT Spine
	{
		OFFSET 0.000000 7.722000 1.166200
		CHANNELS 3 Xrotation Yrotation Zrotation
		JOINT Spine1
		{
			OFFSET 0.000000 12.024101 0.248800
			CHANNELS 3 Xrotation Yrotation Zrotation
			JOINT Spine2
			{
				OFFSET 0.000000 11.502998 -0.491200
				CHANNELS 3 Xrotation Yrotation Zrotation
				JOINT Neck
				{
					OFFSET 0.000000 18.430702 -3.123100
					CHANNELS 3 Xrotation Yrotation Zrotation
					JOINT Head
					{
						OFFSET 0.000000 9.051102 1.034000
						CHANNELS 3 Xrotation Yrotation Zrotation
						JOINT HairB
						{
							OFFSET 0.208400 24.786102 24.822300
							CHANNELS 3 Xrotation Yrotation Zrotation
							End Site
							{
								OFFSET 0.000000 32.263779 0.000000
							}
						}
						JOINT HairA
						{
							OFFSET -7.081100 24.428299 23.196600
							CHANNELS 3 Xrotation Yrotation Zrotation
							End Site
							{
								OFFSET 0.000000 32.263779 0.000000
							}
						}
						JOINT Hat
						{
							OFFSET 16.728800 15.048294 -15.439601
							CHANNELS 3 Xrotation Yrotation Zrotation
							End Site
							{
								OFFSET 0.000000 32.263779 0.000000
							}
						}
					}
				}
				JOINT LeftShoulder
				{
					OFFSET 6.197800 13.665199 -4.064700
					CHANNELS 3 Xrotation Yrotation Zrotation
					JOINT LeftArm
					{
						OFFSET 7.778100 -0.187103 -1.709300
						CHANNELS 3 Xrotation Yrotation Zrotation
						JOINT LeftForeArm
						{
							OFFSET 22.049376 0.000000 0.000000
							CHANNELS 3 Xrotation Yrotation Zrotation
							JOINT LeftHand
							{
								OFFSET 23.009392 0.000000 0.000000
								CHANNELS 3 Xrotation Yrotation Zrotation
								JOINT LeftHandThumb1
								{
									OFFSET 3.507191 -2.063065 3.133727
									CHANNELS 3 Xrotation Yrotation Zrotation
									JOINT LeftHandThumb2
									{
										OFFSET 3.101337 -1.790558 1.790558
										CHANNELS 3 Xrotation Yrotation Zrotation
										JOINT LeftHandThumb3
										{
											OFFSET 3.058640 -1.765907 1.765906
											CHANNELS 3 Xrotation Yrotation Zrotation
											End Site
											{
												OFFSET -0.415260 3.926476 -0.049563
											}
										}
									}
								}
								JOINT LeftHandIndex1
								{
									OFFSET 11.334419 -0.901459 3.706815
									CHANNELS 3 Xrotation Yrotation Zrotation
									JOINT LeftHandIndex2
									{
										OFFSET 3.283112 0.000000 0.000000
										CHANNELS 3 Xrotation Yrotation Zrotation
										JOINT LeftHandIndex3
										{
											OFFSET 3.323853 0.000000 0.000000
											CHANNELS 3 Xrotation Yrotation Zrotation
											End Site
											{
												OFFSET -1.135597 3.097809 0.402452
											}
										}
									}
								}
								JOINT LeftHandMiddle1
								{
									OFFSET 11.335861 0.000000 0.000000
									CHANNELS 3 Xrotation Yrotation Zrotation
									JOINT LeftHandMiddle2
									{
										OFFSET 3.410492 0.000000 0.000000
										CHANNELS 3 Xrotation Yrotation Zrotation
										JOINT LeftHandMiddle3
										{
											OFFSET 3.312172 0.000000 0.000000
											CHANNELS 3 Xrotation Yrotation Zrotation
											End Site
											{
												OFFSET -1.150200 3.080154 0.400270
											}
										}
									}
								}
								JOINT LeftHandRing1
								{
									OFFSET 11.514786 -0.013176 -3.003090
									CHANNELS 3 Xrotation Yrotation Zrotation
									JOINT LeftHandRing2
									{
										OFFSET 3.053307 0.000000 0.000000
										CHANNELS 3 Xrotation Yrotation Zrotation
										JOINT LeftHandRing3
										{
											OFFSET 3.295807 0.000000 0.000000
											CHANNELS 3 Xrotation Yrotation Zrotation
											End Site
											{
												OFFSET -1.281006 3.013344 0.375733
											}
										}
									}
								}
								JOINT LeftHandPinky1
								{
									OFFSET 10.518692 -0.960396 -5.730441
									CHANNELS 3 Xrotation Yrotation Zrotation
									JOINT LeftHandPinky2
									{
										OFFSET 2.861649 0.000000 0.000000
										CHANNELS 3 Xrotation Yrotation Zrotation
										JOINT LeftHandPinky3
										{
											OFFSET 2.863380 0.000000 0.000000
											CHANNELS 3 Xrotation Yrotation Zrotation
											End Site
											{
												OFFSET -0.843597 2.711159 0.369971
											}
										}
									}
								}
							}
							JOINT LSleeve
							{
								OFFSET 6.676277 -0.344902 -1.011730
								CHANNELS 3 Xrotation Yrotation Zrotation
								End Site
								{
									OFFSET 0.000000 14.885353 0.000000
								}
							}
						}
					}
				}
				JOINT RightShoulder
				{
					OFFSET -6.197800 13.665199 -4.064700
					CHANNELS 3 Xrotation Yrotation Zrotation
					JOINT RightArm
					{
						OFFSET -7.778100 -0.187103 -1.709300
						CHANNELS 3 Xrotation Yrotation Zrotation
						JOINT RightForeArm
						{
							OFFSET -22.049376 0.000000 0.000000
							CHANNELS 3 Xrotation Yrotation Zrotation
							JOINT RightHand
							{
								OFFSET -23.009392 0.000000 0.000000
								CHANNELS 3 Xrotation Yrotation Zrotation
								JOINT RightHandThumb1
								{
									OFFSET -3.507191 -2.063065 3.133727
									CHANNELS 3 Xrotation Yrotation Zrotation
									JOINT RightHandThumb2
									{
										OFFSET -3.101337 -1.790558 1.790558
										CHANNELS 3 Xrotation Yrotation Zrotation
										JOINT RightHandThumb3
										{
											OFFSET -3.058640 -1.765907 1.765906
											CHANNELS 3 Xrotation Yrotation Zrotation
											End Site
											{
												OFFSET 0.415260 3.926476 -0.049563
											}
										}
									}
								}
								JOINT RightHandIndex1
								{
									OFFSET -11.334419 -0.901459 3.706815
									CHANNELS 3 Xrotation Yrotation Zrotation
									JOINT RightHandIndex2
									{
										OFFSET -3.283112 0.000000 0.000000
										CHANNELS 3 Xrotation Yrotation Zrotation
										JOINT RightHandIndex3
										{
											OFFSET -3.323853 0.000000 0.000000
											CHANNELS 3 Xrotation Yrotation Zrotation
											End Site
											{
												OFFSET 1.135597 3.097809 0.402452
											}
										}
									}
								}
								JOINT RightHandMiddle1
								{
									OFFSET -11.335861 0.000000 0.000000
									CHANNELS 3 Xrotation Yrotation Zrotation
									JOINT RightHandMiddle2
									{
										OFFSET -3.410492 0.000000 0.000000
										CHANNELS 3 Xrotation Yrotation Zrotation
										JOINT RightHandMiddle3
										{
											OFFSET -3.312172 0.000000 0.000000
											CHANNELS 3 Xrotation Yrotation Zrotation
											End Site
											{
												OFFSET 1.150200 3.080154 0.400270
											}
										}
									}
								}
								JOINT RightHandRing1
								{
									OFFSET -11.514786 -0.013176 -3.003090
									CHANNELS 3 Xrotation Yrotation Zrotation
									JOINT RightHandRing2
									{
										OFFSET -3.053307 0.000000 0.000000
										CHANNELS 3 Xrotation Yrotation Zrotation
										JOINT RightHandRing3
										{
											OFFSET -3.295807 0.000000 0.000000
											CHANNELS 3 Xrotation Yrotation Zrotation
											End Site
											{
												OFFSET 1.281006 3.013344 0.375733
											}
										}
									}
								}
								JOINT RightHandPinky1
								{
									OFFSET -10.518692 -0.960396 -5.730441
									CHANNELS 3 Xrotation Yrotation Zrotation
									JOINT RightHandPinky2
									{
										OFFSET -2.861649 0.000000 0.000000
										CHANNELS 3 Xrotation Yrotation Zrotation
										JOINT RightHandPinky3
										{
											OFFSET -2.863380 0.000000 0.000000
											CHANNELS 3 Xrotation Yrotation Zrotation
											End Site
											{
												OFFSET 0.843597 2.711159 0.369971
											}
										}
									}
								}
							}
							JOINT RSleeve
							{
								OFFSET -6.676277 -0.344902 -1.011730
								CHANNELS 3 Xrotation Yrotation Zrotation
								End Site
								{
									OFFSET 0.000000 14.885353 0.000000
								}
							}
						}
					}
				}
				JOINT Backpack
				{
					OFFSET 0.000000 -2.471497 36.677502
					CHANNELS 3 Xrotation Yrotation Zrotation
					End Site
					{
						OFFSET 0.000000 20.427315 0.000000
					}
				}
				JOINT Hood
				{
					OFFSET 0.000000 18.754097 -10.431000
					CHANNELS 3 Xrotation Yrotation Zrotation
					JOINT Hood1
					{
						OFFSET 0.000000 -5.011002 -7.685901
						CHANNELS 3 Xrotation Yrotation Zrotation
						End Site
						{
							OFFSET 0.000000 9.175140 0.000000
						}
					}
				}
				JOINT LHoodieString
				{
					OFFSET 5.250500 16.397697 3.089900
					CHANNELS 3 Xrotation Yrotation Zrotation
					JOINT LHoodieString1
					{
						OFFSET 0.257700 -6.364304 3.694600
						CHANNELS 3 Xrotation Yrotation Zrotation
						JOINT LHoodieString2
						{
							OFFSET 0.000000 -9.643799 2.679100
							CHANNELS 3 Xrotation Yrotation Zrotation
							End Site
							{
								OFFSET 0.000000 10.009018 0.000000
							}
						}
					}
				}
				JOINT RHoodieString
				{
					OFFSET -5.250500 16.397697 3.089900
					CHANNELS 3 Xrotation Yrotation Zrotation
					JOINT RHoodieString1
					{
						OFFSET -0.257700 -6.364304 3.694600
						CHANNELS 3 Xrotation Yrotation Zrotation
						JOINT RHoodieString2
						{
							OFFSET 0.000000 -9.643799 2.679100
							CHANNELS 3 Xrotation Yrotation Zrotation
							End Site
							{
								OFFSET 0.000000 10.009018 0.000000
							}
						}
					}
				}
			}
			JOINT LBackpack_Strap
			{
				OFFSET 15.223200 -7.719803 -6.610900
				CHANNELS 3 Xrotation Yrotation Zrotation
				End Site
				{
					OFFSET 0.000000 16.040596 0.000000
				}
			}
			JOINT RBackpack_Strap
			{
				OFFSET -15.223000 -7.719803 -6.610900
				CHANNELS 3 Xrotation Yrotation Zrotation
				End Site
				{
					OFFSET 0.000000 16.040596 0.000000
				}
			}
		}
	}
	JOINT BoyFacialAnim_Joint
	{
		OFFSET 1.000000 -82.208099 -1.550900
		CHANNELS 3 Xrotation Yrotation Zrotation
		End Site
		{
			OFFSET 0.000000 30.012791 0.000000
		}
	}
}
MOTION
Frames: 4
Frame Time: 0.033333
0.055397 73.343979 1.406015 18.795933 -13.946160 -1.153533 0.000000 -0.000001 -0.000000 -76.358025 1.487703 18.493565 119.525100 6.815474 0.412665 46.325345 2.511353 5.158442 0.000003 -0.000000 -0.000000 0.000003 -0.000000 -0.000000 -0.000000 -0.000002 -0.000000 -16.434197 -7.443345 6.232433 39.958253 6.428712 1.019164 -32.630952 9.135849 -6.775149 0.000001 -0.000000 0.000000 0.000001 -0.000000 0.000000 0.000003 -0.000000 -0.000000 5.856378 7.149998 2.155803 4.023120 2.640847 -0.073799 4.023213 2.634771 0.054220 -6.245253 0.291347 0.360717 -16.862615 2.760570 -0.811210 -0.000000 0.000000 0.000000 -0.000000 0.000000 0.000000 -0.000000 0.000000 0.000000 0.305190 -13.066427 -13.100194 42.800496 -21.749206 -55.743476 -0.000013 -37.342710 -0.000006 -31.577184 -0.843378 -0.197274 -0.867995 1.559986 6.151901 11.980311 22.666428 4.033106 -0.000001 0.000000 0.000002 2.589234 5.864793 -84.173564 2.891918 5.049876 -59.575683 -0.000002 -0.000002 -0.000005 3.048027 7.991426 -85.410976 2.908910 5.059764 -59.768554 0.000004 -0.000001 0.000002 3.396959 8.008817 -85.135685 3.004574 5.114101 -60.847444 -0.000001 -0.000002 -0.000004 12.559584 17.798204 -104.586288 3.018960 5.122067 -61.008295 0.000001 -0.000002 0.000003 -0.000001 0.000000 0.000002 1.238923 23.426039 6.080376 -31.793028 8.744484 66.568164 0.000016 71.933893 -0.000017 -22.934869 20.811115 -4.394457 -1.752781 4.347760 -7.303322 12.280953 -24.605743 -4.500357 -0.000001 -0.000001 -0.000001 2.472269 -4.676219 83.429859 2.304088 -4.020102 59.623590 -0.000003 0.000000 0.000005 1.874681 -6.690896 84.666076 2.317596 -4.027975 59.816270 -0.000000 0.000001 0.000003 6.472239 -6.950621 89.424901 2.394061 -4.071387 60.899053 -0.000001 -0.000000 0.000004 11.576162 -16.427001 95.466968 2.405125 -4.077532 61.054801 -0.000000 -0.000001 0.000000 0.000000 -0.000002 -0.000000 -0.000001 0.000000 0.000000 -0.000001 0.000000 0.000000 -0.000001 0.000000 0.000000 -0.000001 0.000000 0.000000 -0.000001 0.000000 0.000000 -0.000003 0.000000 -0.000000 -0.000001 0.000000 0.000000 -0.000001 0.000000 0.000000 -0.000003 0.000000 -0.000000 -0.000000 -0.000000 0.000000 -0.000000 -0.000000 0.000000 0.000000 -0.000001 -0.000000 
0.136643 73.522766 16.058426 19.179801 -11.643552 5.580132 0.000001 0.000000 -0.000000 -86.645608 3.139111 9.588718 106.770111 9.100605 0.537832 33.570492 2.493540 2.346757 -0.000001 -0.000000 -0.000000 -0.000001 -0.000000 0.000000 0.000000 0.000000 0.000001 2.125292 -12.981174 -4.673596 19.964850 2.376949 1.185549 -24.744046 15.094522 0.803635 0.000001 -0.000000 0.000000 0.000001 -0.000000 0.000000 -0.000001 -0.000001 -0.000000 5.650387 10.624195 -4.309494 3.892388 3.796853 -1.285174 3.925094 3.803739 -1.036421 -3.939735 -0.886745 -1.685219 -13.021462 -6.676105 0.624401 0.000000 0.000000 -0.000000 0.000000 0.000000 -0.000000 0.000000 0.000000 -0.000000 1.398812 -14.276029 -3.937591 58.999837 -21.226273 -54.837301 0.000005 -55.247812 -0.000007 -36.167061 6.712181 -2.558798 -0.867998 1.559993 6.151901 11.980314 22.666430 4.033103 -0.000003 -0.000000 0.000003 2.589236 5.864798 -84.173564 2.891919 5.049878 -59.575676 -0.000002 0.000003 -0.000005 3.048024 7.991428 -85.410976 2.908910 5.059763 -59.768561 0.000002 0.000001 -0.000001 3.396956 8.008821 -85.135685 3.004573 5.114102 -60.847444 0.000001 -0.000002 0.000003 12.559584 17.798211 -104.586288 3.018962 5.122069 -61.008295 -0.000002 0.000001 0.000002 0.000003 0.000002 -0.000003 3.476831 22.875984 -6.241829 -44.110827 9.824165 72.447489 -0.000199 87.243461 0.000215 -31.652633 37.241012 -4.734220 -1.752784 4.347753 -7.303326 12.280956 -24.605741 -4.500359 -0.000001 0.000001 -0.000002 2.472264 -4.676224 83.429859 2.304090 -4.020104 59.623590 -0.000003 0.000002 0.000004 1.874680 -6.690900 84.666069 2.317592 -4.027982 59.816263 0.000001 -0.000000 -0.000000 6.472236 -6.950621 89.424901 2.394060 -4.071385 60.899053 -0.000001 -0.000001 0.000002 11.576161 -16.427008 95.466968 2.405122 -4.077532 61.054801 0.000000 0.000001 0.000002 0.000000 -0.000001 -0.000003 0.000000 0.000000 -0.000000 0.000000 0.000000 -0.000000 0.000000 0.000000 -0.000000 0.000000 0.000000 -0.000000 0.000000 0.000000 -0.000000 -0.000003 0.000000 -0.000000 0.000000 0.000000 -0.000000 0.000000 0.000000 -0.000000 -0.000003 0.000000 -0.000000 -0.000003 -0.000000 -0.000000 -0.000003 -0.000000 -0.000000 0.000001 0.000000 -0.000000 
-0.421793 73.537918 29.349209 19.011789 -4.714174 13.582983 -0.000000 -0.000001 0.000000 -89.435494 7.570624 -4.961602 83.872578 9.667607 0.634830 21.657063 6.333943 -0.013134 -0.000003 0.000000 0.000000 -0.000003 0.000000 0.000000 -0.000000 0.000000 -0.000001 6.512257 -17.789600 -13.193490 15.669432 0.101813 0.588630 5.127931 7.272441 0.036313 -0.000000 -0.000000 -0.000000 -0.000000 -0.000000 -0.000000 0.000001 -0.000000 0.000000 7.839250 12.210561 -13.469097 4.545407 4.298404 -2.267771 4.593634 4.379243 -1.915326 -0.974391 -2.475654 -2.402113 -11.701192 -16.578032 4.152586 0.000002 0.000000 0.000000 0.000002 0.000000 0.000000 0.000002 0.000000 0.000000 2.735630 -19.624069 3.247856 64.857093 -14.097574 -52.944304 0.000032 -68.331125 0.000034 -43.452192 2.094547 -0.178307 -0.867998 1.559986 6.151900 11.980311 22.666427 4.033103 -0.000001 -0.000000 -0.000000 2.589232 5.864797 -84.173564 2.891920 5.049878 -59.575676 -0.000001 0.000002 -0.000003 3.048024 7.991425 -85.410976 2.908909 5.059763 -59.768561 0.000006 0.000004 0.000001 3.396956 8.008816 -85.135685 3.004575 5.114104 -60.847444 -0.000001 -0.000000 0.000001 12.559581 17.798203 -104.586288 3.018955 5.122067 -61.008295 0.000002 -0.000002 0.000003 -0.000001 -0.000002 0.000002 0.789113 17.562054 -5.613504 -47.904683 14.518793 63.974728 0.000009 106.906155 -0.000001 -28.286547 47.763557 -8.651237 -1.752783 4.347759 -7.303323 12.280949 -24.605748 -4.500358 -0.000000 -0.000002 -0.000001 2.472272 -4.676219 83.429859 2.304090 -4.020099 59.623590 -0.000002 -0.000001 0.000002 1.874684 -6.690899 84.666076 2.317597 -4.027977 59.816270 0.000001 0.000001 0.000002 6.472242 -6.950622 89.424901 2.394062 -4.071393 60.899059 -0.000000 -0.000000 0.000002 11.576161 -16.427005 95.466968 2.405123 -4.077535 61.054801 -0.000000 -0.000001 -0.000002 0.000000 0.000001 -0.000001 -0.000002 0.000000 -0.000000 -0.000002 0.000000 -0.000000 -0.000002 0.000000 -0.000000 -0.000002 0.000000 -0.000000 -0.000002 0.000000 -0.000000 -0.000004 -0.000001 0.000000 -0.000002 0.000000 -0.000000 -0.000002 0.000000 -0.000000 -0.000004 -0.000001 0.000000 0.000001 -0.000002 -0.000000 0.000001 -0.000002 -0.000000 -0.000000 -0.000001 0.000000 
-0.948997 75.036392 43.123745 19.692342 0.186646 12.181584 -0.000001 0.000000 -0.000000 -81.217615 6.459184 -10.367801 54.394780 9.835601 0.167933 13.899329 1.065974 -1.001306 -0.000000 -0.000000 0.000000 -0.000000 -0.000000 0.000000 0.000000 -0.000000 -0.000000 17.550443 -13.686173 -5.800796 4.094298 -6.018448 -0.437238 40.585199 1.067080 -0.985688 0.000001 -0.000000 -0.000001 0.000001 -0.000000 -0.000001 -0.000003 -0.000002 0.000001 7.457997 12.074832 -13.721169 4.141087 4.169985 -2.351114 4.142852 4.284909 -2.096836 1.490397 -3.297047 -1.186104 -12.568431 -19.776230 5.904807 0.000001 0.000000 0.000000 0.000001 0.000000 0.000000 0.000001 0.000000 0.000000 2.553792 -19.843887 2.327014 55.820114 -6.475768 -53.695983 0.000005 -66.117167 -0.000005 -45.376860 -2.068264 4.488113 -0.867996 1.559985 6.151902 11.980309 22.666430 4.033104 -0.000001 -0.000001 -0.000001 2.589233 5.864796 -84.173564 2.891919 5.049879 -59.575683 -0.000001 0.000003 0.000002 3.048024 7.991426 -85.410976 2.908909 5.059762 -59.768561 0.000002 -0.000001 0.000003 3.396957 8.008818 -85.135678 3.004570 5.114102 -60.847444 -0.000002 -0.000002 -0.000001 12.559582 17.798208 -104.586288 3.018955 5.122068 -61.008295 -0.000001 -0.000002 0.000003 0.000000 0.000003 -0.000001 0.501023 14.847581 -5.051275 -40.199416 12.633821 59.450158 0.000024 120.273812 -0.000029 -13.734585 44.146084 -20.903813 -1.752781 4.347759 -7.303323 12.280955 -24.605741 -4.500359 -0.000002 0.000000 0.000001 2.472271 -4.676218 83.429859 2.304088 -4.020099 59.623590 0.000001 0.000000 0.000002 1.874681 -6.690897 84.666076 2.317600 -4.027975 59.816270 0.000002 0.000003 0.000000 6.472238 -6.950622 89.424901 2.394063 -4.071383 60.899053 -0.000003 -0.000000 0.000002 11.576161 -16.427001 95.466968 2.405124 -4.077534 61.054801 -0.000001 0.000002 -0.000005 -0.000000 -0.000003 0.000003 -0.000002 0.000001 0.000001 -0.000002 0.000001 0.000001 -0.000002 0.000001 0.000001 -0.000002 0.000001 0.000001 -0.000002 0.000001 0.000000 -0.000004 0.000001 0.000000 -0.000002 0.000001 0.000001 -0.000002 0.000001 0.000000 -0.000004 0.000001 0.000000 0.000000 0.000002 -0.000000 0.000000 0.000002 -0.000000 -0.000001 0.000000 -0.000000 
